<svg width="244" height="61" viewBox="0 0 244 61" fill="none" xmlns="http://www.w3.org/2000/svg">
<g clip-path="url(#clip0_7_2)">
<path d="M25.528 60.767C25.2947 60.767 25.1113 60.7036 24.978 60.577C24.8447 60.4503 24.778 60.2703 24.778 60.037V53.037C24.778 52.8036 24.8447 52.6236 24.978 52.497C25.1113 52.3703 25.2947 52.307 25.528 52.307H29.858C30.0913 52.307 30.2713 52.3603 30.398 52.467C30.5247 52.567 30.588 52.7136 30.588 52.907C30.588 53.107 30.5247 53.2603 30.398 53.367C30.2713 53.4736 30.0913 53.527 29.858 53.527H26.288V55.857H29.618C29.8513 55.857 30.0313 55.9103 30.158 56.017C30.2847 56.117 30.348 56.267 30.348 56.467C30.348 56.6603 30.2847 56.8103 30.158 56.917C30.0313 57.017 29.8513 57.067 29.618 57.067H26.288V59.547H29.858C30.0913 59.547 30.2713 59.6003 30.398 59.707C30.5247 59.8136 30.588 59.967 30.588 60.167C30.588 60.3603 30.5247 60.507 30.398 60.607C30.2713 60.7136 30.0913 60.767 29.858 60.767H25.528ZM44.578 60.767C44.3447 60.767 44.1647 60.7036 44.038 60.577C43.9113 60.4503 43.848 60.2736 43.848 60.047V53.017C43.848 52.7836 43.918 52.597 44.058 52.457C44.198 52.317 44.3847 52.247 44.618 52.247C44.858 52.247 45.048 52.317 45.188 52.457C45.328 52.597 45.398 52.7836 45.398 53.017V59.497H48.768C49.248 59.497 49.488 59.707 49.488 60.127C49.488 60.5536 49.248 60.767 48.768 60.767H44.578ZM63.248 60.767C63.0213 60.767 62.8413 60.7036 62.708 60.577C62.5747 60.4503 62.508 60.2703 62.508 60.037V53.037C62.508 52.8036 62.5747 52.6236 62.708 52.497C62.8413 52.3703 63.0213 52.307 63.248 52.307H67.588C67.8147 52.307 67.9947 52.3603 68.128 52.467C68.2547 52.567 68.318 52.7136 68.318 52.907C68.318 53.107 68.2547 53.2603 68.128 53.367C67.9947 53.4736 67.8147 53.527 67.588 53.527H64.018V55.857H67.348C67.5747 55.857 67.7547 55.9103 67.888 56.017C68.0147 56.117 68.078 56.267 68.078 56.467C68.078 56.6603 68.0147 56.8103 67.888 56.917C67.7547 57.017 67.5747 57.067 67.348 57.067H64.018V59.547H67.588C67.8147 59.547 67.9947 59.6003 68.128 59.707C68.2547 59.8136 68.318 59.967 68.318 60.167C68.318 60.3603 68.2547 60.507 68.128 60.607C67.9947 60.7136 67.8147 60.767 67.588 60.767H63.248ZM87.728 52.647C87.8613 52.3736 88.0747 52.237 88.368 52.237C88.568 52.237 88.748 52.3003 88.908 52.427C89.068 52.5536 89.148 52.7136 89.148 52.907C89.148 52.9936 89.1247 53.0936 89.078 53.207L85.748 60.357C85.6813 60.5103 85.5713 60.6303 85.418 60.717C85.2713 60.797 85.1147 60.837 84.948 60.837C84.7813 60.837 84.6247 60.797 84.478 60.717C84.3247 60.6303 84.2147 60.5103 84.148 60.357L80.828 53.207C80.7813 53.0936 80.758 52.997 80.758 52.917C80.758 52.717 80.8413 52.5536 81.008 52.427C81.168 52.3003 81.3547 52.237 81.568 52.237C81.7013 52.237 81.8247 52.2703 81.938 52.337C82.058 52.4036 82.148 52.507 82.208 52.647L84.968 58.777L87.728 52.647ZM109.008 59.847C109.055 59.947 109.078 60.0503 109.078 60.157C109.078 60.337 109.005 60.4936 108.858 60.627C108.711 60.7536 108.541 60.817 108.348 60.817C108.221 60.817 108.101 60.7836 107.988 60.717C107.875 60.6436 107.788 60.537 107.728 60.397L107.008 58.787H102.778L102.058 60.397C101.998 60.537 101.911 60.6436 101.798 60.717C101.685 60.7836 101.561 60.817 101.428 60.817C101.241 60.817 101.071 60.7536 100.918 60.627C100.765 60.4936 100.688 60.337 100.688 60.157C100.688 60.0503 100.715 59.947 100.768 59.847L104.078 52.727C104.151 52.567 104.261 52.4436 104.408 52.357C104.555 52.277 104.711 52.237 104.878 52.237C105.045 52.237 105.205 52.277 105.358 52.357C105.505 52.4436 105.615 52.567 105.688 52.727L109.008 59.847ZM104.888 54.027L103.308 57.587H106.478L104.888 54.027ZM123.968 60.827C123.728 60.827 123.538 60.757 123.398 60.617C123.258 60.477 123.188 60.2903 123.188 60.057V53.577H121.008C120.528 53.577 120.288 53.367 120.288 52.947C120.288 52.5203 120.528 52.307 121.008 52.307H126.928C127.408 52.307 127.648 52.5203 127.648 52.947C127.648 53.367 127.408 53.577 126.928 53.577H124.738V60.057C124.738 60.2903 124.668 60.477 124.528 60.617C124.388 60.757 124.201 60.827 123.968 60.827ZM143.818 60.877C142.998 60.877 142.285 60.7003 141.678 60.347C141.071 59.9936 140.605 59.4903 140.278 58.837C139.951 58.177 139.788 57.407 139.788 56.527C139.788 55.647 139.951 54.8836 140.278 54.237C140.598 53.5836 141.061 53.0803 141.668 52.727C142.281 52.3736 142.998 52.197 143.818 52.197C144.645 52.197 145.358 52.3736 145.958 52.727C146.565 53.0803 147.031 53.5836 147.358 54.237C147.678 54.8836 147.838 55.647 147.838 56.527C147.838 57.407 147.675 58.177 147.348 58.837C147.021 59.4903 146.555 59.9936 145.948 60.347C145.348 60.7003 144.638 60.877 143.818 60.877ZM143.818 59.637C144.598 59.637 145.205 59.3703 145.638 58.837C146.071 58.297 146.288 57.527 146.288 56.527C146.288 55.527 146.071 54.7636 145.638 54.237C145.205 53.7036 144.598 53.437 143.818 53.437C143.038 53.437 142.428 53.7036 141.988 54.237C141.555 54.7636 141.338 55.527 141.338 56.527C141.338 57.527 141.555 58.297 141.988 58.837C142.428 59.3703 143.038 59.637 143.818 59.637ZM168.168 59.797C168.261 59.937 168.308 60.077 168.308 60.217C168.308 60.397 168.235 60.547 168.088 60.667C167.941 60.787 167.768 60.847 167.568 60.847C167.441 60.847 167.318 60.817 167.198 60.757C167.085 60.697 166.988 60.607 166.908 60.487L165.308 58.067C165.148 57.8136 164.978 57.6336 164.798 57.527C164.618 57.4203 164.385 57.367 164.098 57.367H162.928V60.057C162.928 60.297 162.858 60.487 162.718 60.627C162.585 60.767 162.401 60.837 162.168 60.837C161.935 60.837 161.748 60.767 161.608 60.627C161.468 60.487 161.398 60.297 161.398 60.057V53.037C161.398 52.8036 161.465 52.6236 161.598 52.497C161.731 52.3703 161.915 52.307 162.148 52.307H165.148C166.108 52.307 166.838 52.5203 167.338 52.947C167.838 53.3736 168.088 53.9936 168.088 54.807C168.088 55.4603 167.901 55.997 167.528 56.417C167.155 56.837 166.628 57.107 165.948 57.227C166.181 57.2803 166.385 57.3803 166.558 57.527C166.738 57.6736 166.911 57.8736 167.078 58.127L168.168 59.797ZM164.928 56.187C165.515 56.187 165.941 56.077 166.208 55.857C166.481 55.637 166.618 55.297 166.618 54.837C166.618 54.377 166.481 54.0403 166.208 53.827C165.941 53.6136 165.515 53.507 164.928 53.507H162.908V56.187H164.928ZM197.728 60.767C197.495 60.767 197.315 60.7036 197.188 60.577C197.055 60.4503 196.988 60.2736 196.988 60.047V53.017C196.988 52.7836 197.058 52.597 197.198 52.457C197.338 52.317 197.525 52.247 197.758 52.247C197.998 52.247 198.188 52.317 198.328 52.457C198.468 52.597 198.538 52.7836 198.538 53.017V59.497H201.908C202.388 59.497 202.628 59.707 202.628 60.127C202.628 60.5536 202.388 60.767 201.908 60.767H197.728ZM216.928 60.827C216.688 60.827 216.498 60.757 216.358 60.617C216.218 60.477 216.148 60.2903 216.148 60.057V53.577H213.958C213.478 53.577 213.238 53.367 213.238 52.947C213.238 52.5203 213.478 52.307 213.958 52.307H219.878C220.358 52.307 220.598 52.5203 220.598 52.947C220.598 53.367 220.358 53.577 219.878 53.577H217.688V60.057C217.688 60.2903 217.618 60.477 217.478 60.617C217.338 60.757 217.155 60.827 216.928 60.827ZM234.248 60.767C234.021 60.767 233.841 60.7036 233.708 60.577C233.575 60.4503 233.508 60.2703 233.508 60.037V53.037C233.508 52.8036 233.575 52.6236 233.708 52.497C233.841 52.3703 234.021 52.307 234.248 52.307H236.628C238.015 52.307 239.088 52.677 239.848 53.417C240.615 54.157 240.998 55.1936 240.998 56.527C240.998 57.8736 240.615 58.917 239.848 59.657C239.088 60.397 238.015 60.767 236.628 60.767H234.248ZM236.528 59.507C238.475 59.507 239.448 58.5136 239.448 56.527C239.448 54.5536 238.475 53.567 236.528 53.567H235.058V59.507H236.528Z" fill="white"/>
<path d="M87.93 45.099C83.8167 45.099 80.2533 44.219 77.24 42.459C74.2267 40.7056 71.9 38.1923 70.26 34.919C68.62 31.639 67.8 27.8056 67.8 23.419C67.8 19.0256 68.61 15.199 70.23 11.939C71.85 8.68564 74.1767 6.1823 77.21 4.42897C80.2433 2.66897 83.8167 1.78897 87.93 1.78897C92.0433 1.78897 95.6067 2.66897 98.62 4.42897C101.64 6.1823 103.957 8.68564 105.57 11.939C107.19 15.199 108 19.0256 108 23.419C108 27.8056 107.18 31.639 105.54 34.919C103.907 38.1923 101.58 40.7056 98.56 42.459C95.5467 44.219 92.0033 45.099 87.93 45.099ZM87.93 38.929C91.8033 38.929 94.83 37.5923 97.01 34.919C99.1833 32.239 100.27 28.4056 100.27 23.419C100.27 18.4256 99.1833 14.599 97.01 11.939C94.83 9.28564 91.8033 7.95897 87.93 7.95897C84.0167 7.95897 80.9733 9.28564 78.8 11.939C76.62 14.599 75.53 18.4256 75.53 23.419C75.53 28.4056 76.62 32.239 78.8 34.919C80.9733 37.5923 84.0167 38.929 87.93 38.929ZM164.66 4.36897C164.94 3.56897 165.39 2.96897 166.01 2.56897C166.623 2.16897 167.31 1.96897 168.07 1.96897C169.03 1.96897 169.86 2.26897 170.56 2.86897C171.26 3.46897 171.61 4.26897 171.61 5.26897C171.61 5.6223 171.51 6.13897 171.31 6.81897L158.43 42.459C158.11 43.259 157.58 43.879 156.84 44.319C156.1 44.759 155.293 44.979 154.42 44.979C153.54 44.979 152.72 44.759 151.96 44.319C151.2 43.879 150.68 43.259 150.4 42.459L140.46 14.249L130.34 42.459C130.02 43.259 129.49 43.879 128.75 44.319C128.01 44.759 127.2 44.979 126.32 44.979C125.44 44.979 124.633 44.759 123.9 44.319C123.16 43.879 122.65 43.259 122.37 42.459L109.49 6.81897C109.29 6.21897 109.19 5.7023 109.19 5.26897C109.19 4.26897 109.56 3.46897 110.3 2.86897C111.04 2.26897 111.907 1.96897 112.9 1.96897C113.7 1.96897 114.42 2.16897 115.06 2.56897C115.7 2.96897 116.16 3.56897 116.44 4.36897L126.62 33.659L137.1 4.54897C137.38 3.74897 137.84 3.11897 138.48 2.65897C139.12 2.19897 139.82 1.96897 140.58 1.96897C141.34 1.96897 142.047 2.19897 142.7 2.65897C143.36 3.11897 143.83 3.76897 144.11 4.60897L154.3 34.019L164.66 4.36897ZM178.91 44.559C177.75 44.559 176.84 44.239 176.18 43.599C175.527 42.959 175.2 42.0623 175.2 40.909V5.97897C175.2 4.82564 175.527 3.92897 176.18 3.28897C176.84 2.64897 177.75 2.32897 178.91 2.32897H200.53C201.69 2.32897 202.59 2.58897 203.23 3.10897C203.87 3.62897 204.19 4.36897 204.19 5.32897C204.19 6.32231 203.87 7.08897 203.23 7.62897C202.59 8.16897 201.69 8.43897 200.53 8.43897H182.74V20.059H199.34C200.493 20.059 201.39 20.319 202.03 20.839C202.67 21.359 202.99 22.119 202.99 23.119C202.99 24.0723 202.67 24.809 202.03 25.329C201.39 25.849 200.493 26.109 199.34 26.109H182.74V38.449H200.53C201.69 38.449 202.59 38.719 203.23 39.259C203.87 39.799 204.19 40.5656 204.19 41.559C204.19 42.519 203.87 43.259 203.23 43.779C202.59 44.299 201.69 44.559 200.53 44.559H178.91ZM241.26 39.709C241.74 40.429 241.98 41.1256 241.98 41.799C241.98 42.719 241.61 43.479 240.87 44.079C240.13 44.679 239.263 44.979 238.27 44.979C237.63 44.979 237.02 44.829 236.44 44.529C235.86 44.229 235.37 43.779 234.97 43.179L227 31.079C226.207 29.8056 225.36 28.909 224.46 28.389C223.56 27.869 222.39 27.609 220.95 27.609H215.08V41.029C215.08 42.2223 214.743 43.169 214.07 43.869C213.39 44.569 212.47 44.919 211.31 44.919C210.15 44.919 209.223 44.569 208.53 43.869C207.83 43.169 207.48 42.2223 207.48 41.029V5.97897C207.48 4.82564 207.81 3.92897 208.47 3.28897C209.123 2.64897 210.03 2.32897 211.19 2.32897H226.17C230.957 2.32897 234.6 3.39897 237.1 5.53897C239.593 7.6723 240.84 10.7556 240.84 14.789C240.84 18.0623 239.913 20.749 238.06 22.849C236.2 24.9423 233.573 26.289 230.18 26.889C231.34 27.169 232.357 27.669 233.23 28.389C234.11 29.109 234.97 30.1056 235.81 31.379L241.26 39.709ZM225.09 21.679C228.003 21.679 230.14 21.129 231.5 20.029C232.853 18.929 233.53 17.2423 233.53 14.969C233.53 12.6556 232.853 10.969 231.5 9.90897C230.14 8.84897 228.003 8.31897 225.09 8.31897H215.02V21.679H225.09Z" fill="white" stroke="white" stroke-width="2.2" stroke-linejoin="round"/>
<path d="M29.8144 20.1941C29.3395 19.0018 28.9655 18.0957 28.6271 17.2134C27.3804 14.054 26.1813 10.8886 24.9228 7.77083C24.8261 7.61744 24.7614 7.44593 24.7327 7.26669C24.7039 7.08746 24.7117 6.90423 24.7555 6.7281C24.7994 6.55198 24.8784 6.38662 24.9877 6.24206C25.0971 6.09749 25.2346 5.97673 25.3918 5.88708C39.6391 -5.1591 61.4731 3.31778 64.5718 21.1181C66.6021 32.8915 61.1347 43.5979 50.4492 48.5875C38.2262 54.3281 22.9163 48.6292 17.6923 36.1106C13.2103 25.3803 9.12608 14.4355 4.87563 3.58604C4.72751 3.11812 4.60465 2.64252 4.50758 2.1613C5.21401 2.11957 5.73641 2.07188 6.28849 2.06592C9.79689 2.06592 13.3112 2.09573 16.8196 2.06592C17.2792 2.00381 17.7454 2.11426 18.1288 2.37609C18.5123 2.63792 18.786 3.0327 18.8974 3.4847C22.2811 12.2954 25.6708 21.1419 29.2563 29.9109C30.9126 33.9705 33.8274 36.8438 38.4102 37.5174C43.2246 38.2268 47.1189 36.5517 49.8674 32.5934C52.7466 28.4563 52.8831 24.0093 50.2533 19.7052C49.2416 18.0295 47.8286 16.6346 46.1429 15.6473C44.4572 14.66 42.5523 14.1118 40.6018 14.0525C38.6512 13.9933 36.7169 14.4249 34.9748 15.3081C33.2328 16.1912 31.7384 17.4979 30.6276 19.1091C30.4317 19.3654 30.224 19.6337 29.8144 20.1941Z" fill="white"/>
<path d="M11.5837 32.0688C12.0943 33.3386 12.6404 34.5964 13.1153 35.8781C14.3919 39.3803 16.3379 42.5981 18.8439 45.3505C19.1335 45.6037 19.3279 45.9488 19.3949 46.3284C19.4618 46.7081 19.3973 47.0993 19.212 47.4369C17.532 51.5681 15.941 55.735 14.2373 59.8602C14.0592 60.3073 13.4834 60.9034 13.0857 60.9093C8.93019 60.9749 4.77472 60.9093 0.619261 60.9093C0.399626 60.8454 0.188379 60.7553 -0.00999451 60.6411L11.1504 32.0867L11.5837 32.0688Z" fill="#F4C133"/>
</g>
<defs>
<clipPath id="clip0_7_2">
<rect width="244" height="61" fill="white"/>
</clipPath>
</defs>
</svg>
