<svg width="52" height="52" viewBox="0 0 52 52" fill="none" xmlns="http://www.w3.org/2000/svg">
<path d="M8.49217 17.1837L0.105324 32.3111C0.0503882 32.4101 0.0160696 32.5192 0.00443741 32.6318C-0.00719481 32.7444 0.00410023 32.8582 0.0376417 32.9664C0.0711832 33.0745 0.126276 33.1748 0.1996 33.2611C0.272924 33.3473 0.36296 33.4179 0.464281 33.4684L5.49639 35.9845C5.68938 36.0812 5.91226 36.0998 6.11862 36.0364C6.32498 35.973 6.49894 35.8324 6.60429 35.644L6.82402 35.2481C7.25074 36.5228 7.75805 37.7691 8.34288 38.9794C8.0275 39.4226 7.84037 39.9442 7.80204 40.4868C7.76371 41.0294 7.87566 41.5721 8.1256 42.0553C8.37554 42.5384 8.75379 42.9434 9.21883 43.2256C9.68386 43.5078 10.2177 43.6564 10.7616 43.6551H10.8598C10.8757 43.6551 10.89 43.6509 10.9059 43.6501V44.0954C10.9068 44.8681 11.2141 45.6089 11.7605 46.1552C12.3069 46.7016 13.0476 47.0089 13.8203 47.0098H14.1273C14.268 47.0047 14.4082 46.9893 14.5466 46.9637C14.587 47.3565 14.7084 47.7367 14.9031 48.0802C15.0978 48.4237 15.3616 48.7232 15.6778 48.9596C15.9941 49.196 16.356 49.3643 16.7405 49.4538C17.1251 49.5434 17.5241 49.5522 17.9123 49.4798C17.9298 49.6533 17.9647 49.8247 18.0163 49.9914L18.0582 50.113C18.2428 50.6439 18.5838 51.1064 19.0364 51.4398C19.4889 51.7732 20.0318 51.9618 20.5935 51.9807L21.2276 52H21.3316C21.8407 52.0005 22.3432 51.8841 22.8003 51.6599C23.2575 51.4357 23.6571 51.1096 23.9684 50.7067L24.22 50.7965C25.7361 51.3413 27.3754 51.4461 28.9486 51.0986C30.5217 50.7512 31.9644 49.9658 33.1101 48.8331C33.1587 48.8331 33.2073 48.8432 33.256 48.8432C34.1027 48.8392 34.9367 48.637 35.6912 48.2528C36.4458 47.8686 37.0999 47.3131 37.6012 46.6307L38.4055 45.4239C38.9581 45.2462 39.4701 44.9613 39.9125 44.5856C40.3549 44.2098 40.7189 43.7506 40.9836 43.2341L41.5707 42.3585C42.2409 42.0827 42.8043 41.5983 43.1776 40.9772C43.4743 40.4757 43.6378 39.9066 43.6525 39.3241C43.6672 38.7416 43.5326 38.1651 43.2615 37.6493L45.3247 35.5526L45.4043 35.6884C45.5125 35.8723 45.6867 36.0081 45.8914 36.0681C46.0962 36.1281 46.3161 36.1078 46.5064 36.0113L51.5385 33.4634C51.6408 33.4116 51.7314 33.3394 51.8047 33.2513C51.878 33.1631 51.9324 33.0608 51.9647 32.9508C51.9969 32.8407 52.0062 32.7253 51.9921 32.6115C51.9779 32.4977 51.9405 32.388 51.8823 32.2892L43.4955 18.0316C43.3873 17.8477 43.2131 17.712 43.0084 17.652C42.8037 17.592 42.5838 17.6123 42.3935 17.7087L37.3614 20.2566C37.259 20.3084 37.1684 20.3806 37.0951 20.4688C37.0218 20.557 36.9674 20.6592 36.9352 20.7693C36.9029 20.8793 36.8936 20.9948 36.9078 21.1086C36.9219 21.2223 36.9593 21.332 37.0175 21.4308L37.7522 22.6796C36.1713 23.0743 34.5143 23.0453 32.9482 22.5957C31.155 22.085 29.2618 22.0363 27.4447 22.454L20.0559 24.159C18.1845 23.7855 16.466 22.8652 15.1178 21.5147L14.6875 21.0844L14.9903 20.5401C15.0451 20.4415 15.0795 20.3328 15.0914 20.2206C15.1032 20.1083 15.0923 19.9949 15.0592 19.887C15.0262 19.7791 14.9717 19.6789 14.899 19.5926C14.8264 19.5062 14.737 19.4354 14.6364 19.3844L9.60426 16.8373C9.41013 16.7398 9.18571 16.7214 8.97827 16.786C8.77084 16.8506 8.59657 16.9932 8.49217 17.1837ZM10.7616 41.9752C10.5218 41.9749 10.2869 41.9078 10.083 41.7815C9.87913 41.6553 9.71442 41.4748 9.60728 41.2602C9.50014 41.0457 9.4548 40.8056 9.47634 40.5667C9.49788 40.3279 9.58544 40.0998 9.72923 39.9078L10.9361 38.2993C11.0566 38.1388 11.2128 38.0086 11.3922 37.9188C11.5717 37.829 11.7695 37.7821 11.9702 37.7818H12.1279C12.4703 37.7822 12.7985 37.9184 13.0407 38.1606C13.2828 38.4027 13.419 38.7309 13.4194 39.0734V39.4181C13.4181 39.7603 13.2822 40.0884 13.0412 40.3314L11.7731 41.5986C11.6534 41.7189 11.5111 41.8143 11.3543 41.8792C11.1975 41.9442 11.0295 41.9774 10.8598 41.9769L10.7616 41.9752ZM13.8178 45.3299C13.4899 45.3295 13.1755 45.199 12.9436 44.9671C12.7117 44.7352 12.5812 44.4208 12.5808 44.0929V43.6735C12.5817 43.3456 12.7118 43.0313 12.9431 42.7988C12.9481 42.7938 12.9556 42.7896 12.9607 42.7845L14.2262 41.5148C14.2355 41.5064 14.2413 41.4955 14.2506 41.4863L15.9187 39.8181C16.0333 39.7031 16.1695 39.6119 16.3195 39.5499C16.4695 39.4878 16.6303 39.4561 16.7926 39.4566H16.9528C17.1878 39.4567 17.4179 39.5236 17.6162 39.6497C17.8146 39.7757 17.9729 39.9557 18.0727 40.1684C18.1724 40.3812 18.2096 40.618 18.1797 40.8511C18.1498 41.0841 18.0541 41.3039 17.9039 41.4846L15.0775 44.8821C14.9616 45.0216 14.8163 45.1338 14.6521 45.2108C14.4878 45.2877 14.3087 45.3276 14.1273 45.3274L13.8178 45.3299ZM17.4317 47.846C17.1968 47.846 16.9667 47.7791 16.7684 47.6532C16.5702 47.5272 16.4118 47.3474 16.312 47.1348C16.2121 46.9221 16.1749 46.6855 16.2046 46.4524C16.2343 46.2194 16.3298 45.9997 16.4798 45.8189L19.1946 42.5614L19.3095 42.4239C19.4317 42.2794 19.5848 42.1643 19.7576 42.0872C19.9304 42.0101 20.1184 41.973 20.3075 41.9786C20.5425 41.9786 20.7727 42.0456 20.971 42.1716C21.1693 42.2977 21.3276 42.4776 21.4274 42.6904C21.5272 42.9031 21.5643 43.1399 21.5344 43.373C21.5045 43.6061 21.4089 43.8258 21.2586 44.0065L18.4281 47.4032C18.3058 47.547 18.1528 47.6615 17.9803 47.7381C17.8079 47.8148 17.6204 47.8517 17.4317 47.846ZM21.2754 50.321L20.6413 50.3017C20.4195 50.2943 20.2051 50.2199 20.0264 50.0881C19.8478 49.9563 19.7133 49.7734 19.6408 49.5636L19.5989 49.442C19.5381 49.2643 19.524 49.0739 19.558 48.8892C19.5919 48.7044 19.6727 48.5315 19.7926 48.387L22.5494 45.0783L22.7079 44.8888C22.8102 44.7657 22.9384 44.6666 23.0834 44.5986C23.2283 44.5306 23.3864 44.4954 23.5465 44.4955H24.0707C24.2689 44.4946 24.4635 44.5478 24.6337 44.6492C24.804 44.7507 24.9433 44.8967 25.0368 45.0714C25.1303 45.2461 25.1744 45.443 25.1643 45.6409C25.1543 45.8388 25.0905 46.0303 24.9799 46.1946L22.7238 49.5779C22.5653 49.8145 22.3492 50.0069 22.0958 50.1369C21.8424 50.2669 21.56 50.3302 21.2754 50.321ZM42.4496 19.5647L49.9861 32.3731L46.4535 34.1612L38.9154 21.3528L42.4496 19.5647ZM27.823 24.0936C29.3631 23.7392 30.9679 23.7805 32.4878 24.2136C34.4978 24.7912 36.6315 24.7799 38.6353 24.1808L44.4449 34.058L42.1561 36.3854C38.4893 33.4755 34.5777 30.8883 30.4649 28.6527L31.1299 28.5454L30.8641 26.889L28.348 27.294C26.7346 27.5545 25.1043 27.696 23.4702 27.7176C23.2851 27.72 23.106 27.7836 22.9609 27.8984C22.8157 28.0133 22.7126 28.1729 22.6676 28.3525L22.4638 29.1668C22.3277 29.7111 22.0135 30.1942 21.5713 30.5394C21.1291 30.8847 20.5842 31.0723 20.0232 31.0723H17.9844L19.9134 25.9169L27.823 24.0936ZM13.9319 22.7056C15.163 23.9365 16.6618 24.8665 18.3115 25.4229L15.9883 31.6183C15.9411 31.7451 15.9253 31.8815 15.9422 32.0158C15.9591 32.1501 16.0082 32.2783 16.0855 32.3894C16.1627 32.5006 16.2656 32.5914 16.3856 32.6542C16.5055 32.7169 16.6388 32.7497 16.7742 32.7497H20.0258C20.9612 32.7506 21.87 32.4384 22.6073 31.8628C23.3447 31.2872 23.8681 30.4813 24.0942 29.5736L24.142 29.3807C25.3206 29.3373 26.4962 29.2346 27.6645 29.0729C32.5101 31.5305 37.0909 34.4785 41.335 37.8707C41.6616 38.1338 41.8822 38.506 41.9563 38.9188C42.0304 39.3316 41.9531 39.7572 41.7384 40.1175C41.6192 40.316 41.4615 40.4886 41.2745 40.6252C41.0875 40.7617 40.8751 40.8595 40.6498 40.9126C40.4244 40.9658 40.1907 40.9733 39.9624 40.9347C39.7341 40.896 39.5159 40.8121 39.3205 40.6878L32.3242 36.2353L31.4226 37.651L38.4181 42.1018C38.7351 42.3013 39.0828 42.4473 39.4472 42.5338C39.2728 42.8529 39.0374 43.1345 38.7542 43.3626C38.471 43.5906 38.1456 43.7606 37.7967 43.8629C37.4477 43.9652 37.0821 43.9977 36.7206 43.9586C36.3591 43.9194 36.0088 43.8095 35.6899 43.635L29.757 40.4002L28.9535 41.8729L34.8897 45.1094C35.326 45.3452 35.7985 45.5068 36.2878 45.5874L36.2367 45.6654C35.6793 46.4162 34.8587 46.9286 33.9395 47.0997C33.0202 47.2708 32.0702 47.088 31.2801 46.588L28.1266 44.6171L27.2368 46.0428L30.3902 48.0137C30.6019 48.1451 30.8221 48.2622 31.0494 48.3643C30.1727 48.9784 29.1648 49.3793 28.1058 49.5353C27.0469 49.6912 25.9662 49.5978 24.9497 49.2625L26.3754 47.1222C26.6549 46.7052 26.8156 46.2201 26.8405 45.7187C26.8654 45.2174 26.7534 44.7187 26.5167 44.2761C26.2799 43.8334 25.9272 43.4636 25.4963 43.206C25.0655 42.9484 24.5727 42.8129 24.0707 42.8139H23.5524C23.4343 42.8191 23.3166 42.832 23.2002 42.8525C23.1774 42.6617 23.1364 42.4735 23.0777 42.2906C22.88 41.7035 22.5012 41.1942 21.9957 40.8362C21.4902 40.4781 20.8842 40.2896 20.2648 40.2978C20.1241 40.303 19.9839 40.3184 19.8454 40.344C19.8228 40.1506 19.7815 39.9599 19.7221 39.7745C19.5289 39.1936 19.1574 38.6883 18.6606 38.3306C18.1637 37.9728 17.5667 37.7808 16.9545 37.7818H16.7943C16.1475 37.7838 15.5203 38.0036 15.0138 38.4058C14.8627 37.7526 14.4952 37.1698 13.971 36.7519C13.4467 36.3341 12.7966 36.1059 12.1262 36.1044H11.9685C11.5077 36.1056 11.0534 36.2134 10.6412 36.4194C10.229 36.6255 9.87005 36.9241 9.59252 37.292L9.47426 37.4497C8.90175 36.165 8.42028 34.8416 8.03341 33.4894L7.94954 33.211L13.8388 22.615L13.9319 22.7056ZM5.52826 34.1243L1.99656 32.3589L9.5682 18.7026L13.1016 20.4915L5.52826 34.1243Z" fill="#FF6600"/>
<path d="M17.0711 12.8318L25.4579 19.9287C25.6093 20.0569 25.8013 20.1272 25.9997 20.1272C26.1981 20.1272 26.3901 20.0569 26.5415 19.9287L34.9283 12.8318C35.8105 12.0871 36.5193 11.1586 37.0052 10.1114C37.491 9.06413 37.7423 7.92339 37.7413 6.76892C37.7413 5.43015 37.3442 4.12145 36.6005 3.00831C35.8567 1.89517 34.7995 1.02758 33.5626 0.515258C32.3258 0.00293541 30.9648 -0.131113 29.6517 0.130062C28.3387 0.391238 27.1325 1.03591 26.1859 1.98255L25.9997 2.16874L25.8135 1.98255C24.8668 1.03591 23.6607 0.391238 22.3477 0.130062C21.0346 -0.131113 19.6736 0.00293541 18.4368 0.515258C17.1999 1.02758 16.1427 1.89517 15.3989 3.00831C14.6551 4.12145 14.2581 5.43015 14.2581 6.76892C14.2571 7.92339 14.5084 9.06413 14.9942 10.1114C15.4801 11.1586 16.1889 12.0871 17.0711 12.8318ZM21.0271 1.67727C21.6961 1.67535 22.3587 1.80616 22.9768 2.06213C23.5948 2.31809 24.1559 2.69413 24.6276 3.16845L25.4067 3.94759C25.564 4.10482 25.7773 4.19315 25.9997 4.19315C26.2221 4.19315 26.4354 4.10482 26.5926 3.94759L27.3718 3.16845C28.0839 2.45632 28.9911 1.97135 29.9789 1.77486C30.9666 1.57838 31.9904 1.67921 32.9208 2.06461C33.8512 2.45 34.6464 3.10265 35.2059 3.94002C35.7654 4.77738 36.064 5.76185 36.0639 6.76892C36.0642 7.67925 35.8658 8.57866 35.4825 9.40436C35.0992 10.2301 34.5403 10.9621 33.8447 11.5494L25.9997 18.191L18.1546 11.5528C17.4587 10.9651 16.8995 10.2325 16.5162 9.40619C16.1329 8.57988 15.9347 7.67981 15.9355 6.76892C15.9373 5.41908 16.4743 4.12503 17.4288 3.17054C18.3832 2.21606 19.6773 1.67905 21.0271 1.67727Z" fill="#FF6600"/>
</svg>
