<svg width="51" height="52" viewBox="0 0 51 52" fill="none" xmlns="http://www.w3.org/2000/svg">
<path d="M50.5455 37.18C50.0919 36.3851 49.3464 35.8047 48.472 35.566C47.5976 35.3272 46.6655 35.4495 45.8797 35.906L37.5481 40.7853C37.0931 40.0939 36.4073 39.5923 35.6168 39.3727L22.8672 35.9147C21.8861 35.6461 20.8534 35.6372 19.8678 35.8887L15.3815 37.024V35.5333C15.3815 35.3035 15.2915 35.083 15.1313 34.9205C14.971 34.758 14.7537 34.6667 14.527 34.6667H7.69077C7.46414 34.6667 7.24679 34.758 7.08653 34.9205C6.92628 35.083 6.83624 35.3035 6.83624 35.5333V36.4H0.854531C0.627895 36.4 0.410542 36.4913 0.250286 36.6538C0.0900306 36.8164 0 37.0368 0 37.2667V49.4C0 49.6299 0.0900306 49.8503 0.250286 50.0128C0.410542 50.1754 0.627895 50.2667 0.854531 50.2667H6.83624V51.1333C6.83624 51.3632 6.92628 51.5836 7.08653 51.7462C7.24679 51.9087 7.46414 52 7.69077 52H14.527C14.7537 52 14.971 51.9087 15.1313 51.7462C15.2915 51.5836 15.3815 51.3632 15.3815 51.1333V49.9373L16.4839 50.492C17.315 50.9115 18.2302 51.131 19.1586 51.1333H31.9509C33.0014 51.1356 34.0337 50.8545 34.9418 50.3187L49.2979 41.912C50.0799 41.4502 50.65 40.6935 50.8837 39.8069C51.1175 38.9203 50.9959 37.976 50.5455 37.18ZM6.83624 48.5333H1.70906V38.1333H6.83624V48.5333ZM13.6725 50.2667H8.54531V36.4H13.6725V50.2667ZM48.4433 40.4127L34.0872 48.8193C33.438 49.2004 32.701 49.4007 31.9509 49.4H19.1586C18.4938 49.4014 17.8381 49.244 17.2444 48.9407L15.3815 47.996V38.8093L20.278 37.57C20.9826 37.3893 21.7212 37.3953 22.4229 37.5873L35.1725 41.054C35.5005 41.1404 35.7956 41.3241 36.02 41.5817C36.2443 41.8393 36.3877 42.159 36.4318 42.4998C36.4759 42.8406 36.4186 43.1869 36.2673 43.4945C36.116 43.802 35.8776 44.0568 35.5827 44.226C35.39 44.3412 35.1765 44.416 34.9549 44.4457C34.7332 44.4755 34.5079 44.4597 34.2923 44.3993L24.0978 41.626C23.8779 41.5662 23.6437 41.5975 23.4466 41.7129C23.2495 41.8283 23.1056 42.0184 23.0467 42.2413C22.9878 42.4643 23.0186 42.7019 23.1324 42.9018C23.2461 43.1017 23.4336 43.2476 23.6534 43.3073L33.848 46.072C34.1378 46.1511 34.4365 46.1919 34.7367 46.1933C35.3346 46.1942 35.9217 46.0326 36.4372 45.7253C36.8278 45.4991 37.1701 45.1964 37.4445 44.8349C37.7188 44.4734 37.9195 44.0602 38.0352 43.6193C38.1299 43.2373 38.1617 42.8419 38.1292 42.4493L46.7343 37.414C47.1269 37.193 47.5889 37.1354 48.0226 37.2534C48.4564 37.3715 48.8278 37.6559 49.0586 38.0467C49.2855 38.4434 49.3482 38.9151 49.2329 39.3586C49.1176 39.802 48.8337 40.1811 48.4433 40.4127Z" fill="#FF6600"/>
<path d="M11.1089 49.4C11.3355 49.4 11.5529 49.3087 11.7131 49.1462C11.8734 48.9836 11.9634 48.7632 11.9634 48.5333V47.6667C11.9634 47.4368 11.8734 47.2164 11.7131 47.0538C11.5529 46.8913 11.3355 46.8 11.1089 46.8C10.8823 46.8 10.6649 46.8913 10.5047 47.0538C10.3444 47.2164 10.2544 47.4368 10.2544 47.6667V48.5333C10.2544 48.7632 10.3444 48.9836 10.5047 49.1462C10.6649 49.3087 10.8823 49.4 11.1089 49.4Z" fill="#FF6600"/>
<path d="M37.5993 13H34.3949L34.241 12.636L36.5141 10.3393C36.6742 10.1757 36.764 9.95452 36.764 9.724C36.764 9.49348 36.6742 9.2723 36.5141 9.10867L32.8909 5.434C32.7295 5.27163 32.5115 5.18051 32.2842 5.18051C32.0569 5.18051 31.8388 5.27163 31.6774 5.434L29.4129 7.73933L29.054 7.58333V4.33333C29.054 4.10348 28.964 3.88304 28.8038 3.72051C28.6435 3.55798 28.4261 3.46667 28.1995 3.46667H23.0723C22.8457 3.46667 22.6283 3.55798 22.4681 3.72051C22.3078 3.88304 22.2178 4.10348 22.2178 4.33333V7.58333L21.8589 7.73933L19.5944 5.434C19.433 5.27163 19.215 5.18051 18.9877 5.18051C18.7604 5.18051 18.5423 5.27163 18.381 5.434L14.7577 9.10867C14.5976 9.2723 14.5078 9.49348 14.5078 9.724C14.5078 9.95452 14.5976 10.1757 14.7577 10.3393L17.0308 12.636L16.877 13H13.6725C13.4459 13 13.2285 13.0913 13.0682 13.2538C12.908 13.4164 12.818 13.6368 12.818 13.8667V19.0667C12.818 19.2965 12.908 19.517 13.0682 19.6795C13.2285 19.842 13.4459 19.9333 13.6725 19.9333H16.877L17.0308 20.2973L14.7577 22.594C14.6003 22.7593 14.5116 22.9796 14.5099 23.2093C14.5132 23.4388 14.6017 23.6585 14.7577 23.8247L18.381 27.4993C18.5439 27.659 18.7611 27.749 18.9877 27.7507C19.2139 27.7473 19.4305 27.6576 19.5944 27.4993L21.8589 25.194L22.2178 25.35V28.6C22.2178 28.8299 22.3078 29.0503 22.4681 29.2128C22.6283 29.3754 22.8457 29.4667 23.0723 29.4667H28.1995C28.4261 29.4667 28.6435 29.3754 28.8038 29.2128C28.964 29.0503 29.054 28.8299 29.054 28.6V25.35L29.4129 25.194L31.6774 27.4993C31.8427 27.654 32.0593 27.7398 32.2842 27.7398C32.509 27.7398 32.7256 27.654 32.8909 27.4993L36.5141 23.8247C36.6701 23.6585 36.7586 23.4388 36.7619 23.2093C36.7602 22.9796 36.6715 22.7593 36.5141 22.594L34.241 20.2973L34.3949 19.9333H37.5993C37.826 19.9333 38.0433 19.842 38.2036 19.6795C38.3638 19.517 38.4539 19.2965 38.4539 19.0667V13.8667C38.4539 13.6368 38.3638 13.4164 38.2036 13.2538C38.0433 13.0913 37.826 13 37.5993 13ZM36.7448 18.2H33.7881C33.6079 18.2001 33.4324 18.258 33.2866 18.3654C33.1408 18.4728 33.0322 18.6242 32.9763 18.798C32.8442 19.2334 32.6696 19.6544 32.4551 20.0547C32.3679 20.2199 32.3351 20.409 32.3612 20.5945C32.3873 20.7799 32.4711 20.9521 32.6003 21.086L34.7025 23.2093L32.2842 25.662L30.1906 23.53C30.0586 23.3989 29.8888 23.3139 29.7059 23.2874C29.523 23.2609 29.3366 23.2943 29.1737 23.3827C28.779 23.6002 28.3639 23.7773 27.9346 23.9113C27.7633 23.968 27.614 24.0781 27.5081 24.226C27.4022 24.3739 27.3451 24.5519 27.345 24.7347V27.7333H23.9269V24.7347C23.9267 24.5519 23.8696 24.3739 23.7637 24.226C23.6578 24.0781 23.5086 23.968 23.3372 23.9113C22.9079 23.7773 22.4928 23.6002 22.0982 23.3827C21.9353 23.2943 21.7488 23.2609 21.5659 23.2874C21.383 23.3139 21.2133 23.3989 21.0813 23.53L18.9877 25.662L16.5693 23.2093L18.6715 21.086C18.8007 20.9521 18.8845 20.7799 18.9107 20.5945C18.9368 20.409 18.9039 20.2199 18.8168 20.0547C18.6022 19.6544 18.4276 19.2334 18.2955 18.798C18.2396 18.6242 18.131 18.4728 17.9852 18.3654C17.8394 18.258 17.6639 18.2001 17.4837 18.2H14.527V14.7333H17.4837C17.6639 14.7332 17.8394 14.6753 17.9852 14.5679C18.131 14.4605 18.2396 14.3091 18.2955 14.1353C18.4276 13.6999 18.6022 13.2789 18.8168 12.8787C18.9039 12.7134 18.9368 12.5244 18.9107 12.3389C18.8845 12.1534 18.8007 11.9812 18.6715 11.8473L16.5693 9.724L18.9877 7.27133L21.0813 9.40333C21.2133 9.53442 21.383 9.61939 21.5659 9.64589C21.7488 9.67239 21.9353 9.63903 22.0982 9.55067C22.4928 9.33311 22.9079 9.15601 23.3372 9.022C23.5086 8.96534 23.6578 8.85521 23.7637 8.70734C23.8696 8.55947 23.9267 8.38143 23.9269 8.19867V5.2H27.345V8.19867C27.3451 8.38143 27.4022 8.55947 27.5081 8.70734C27.614 8.85521 27.7633 8.96534 27.9346 9.022C28.3639 9.15601 28.779 9.33311 29.1737 9.55067C29.3366 9.63903 29.523 9.67239 29.7059 9.64589C29.8888 9.61939 30.0586 9.53442 30.1906 9.40333L32.2842 7.27133L34.7025 9.724L32.6003 11.8473C32.4711 11.9812 32.3873 12.1534 32.3612 12.3389C32.3351 12.5244 32.3679 12.7134 32.4551 12.8787C32.6696 13.2789 32.8442 13.6999 32.9763 14.1353C33.0322 14.3091 33.1408 14.4605 33.2866 14.5679C33.4324 14.6753 33.6079 14.7332 33.7881 14.7333H36.7448V18.2Z" fill="#FF6600"/>
<path d="M30.7631 16.4667C30.7631 15.4382 30.4624 14.4328 29.899 13.5777C29.3356 12.7226 28.5349 12.0561 27.598 11.6625C26.6611 11.2689 25.6302 11.1659 24.6357 11.3666C23.6411 11.5672 22.7275 12.0625 22.0105 12.7897C21.2934 13.5169 20.8051 14.4435 20.6073 15.4522C20.4094 16.4609 20.511 17.5064 20.899 18.4566C21.2871 19.4068 21.9442 20.2189 22.7874 20.7903C23.6306 21.3617 24.6219 21.6667 25.6359 21.6667C26.9953 21.6653 28.2986 21.117 29.2599 20.1421C30.2211 19.1672 30.7617 17.8454 30.7631 16.4667ZM22.2178 16.4667C22.2178 15.781 22.4183 15.1108 22.7939 14.5407C23.1694 13.9706 23.7033 13.5263 24.3279 13.2639C24.9524 13.0015 25.6397 12.9328 26.3028 13.0666C26.9658 13.2004 27.5749 13.5305 28.0529 14.0154C28.5309 14.5002 28.8565 15.1179 28.9884 15.7904C29.1203 16.4628 29.0526 17.1599 28.7938 17.7933C28.5351 18.4268 28.097 18.9682 27.5349 19.3491C26.9728 19.73 26.312 19.9333 25.6359 19.9333C24.7294 19.9333 23.86 19.5681 23.2189 18.918C22.5779 18.2678 22.2178 17.3861 22.2178 16.4667Z" fill="#FF6600"/>
<path d="M45.2901 18.2H43.5811C43.5811 13.3731 41.6904 8.74382 38.3251 5.33066C34.9597 1.91749 30.3953 0 25.6359 0C20.8766 0 16.3122 1.91749 12.9468 5.33066C9.58142 8.74382 7.69078 13.3731 7.69077 18.2H5.98171C4.6219 18.2 3.31778 18.7479 2.35625 19.723C1.39471 20.6982 0.85453 22.0209 0.85453 23.4C0.85453 24.7791 1.39471 26.1018 2.35625 27.077C3.31778 28.0521 4.6219 28.6 5.98171 28.6H10.2544C10.481 28.6 10.6984 28.5087 10.8586 28.3462C11.0189 28.1836 11.1089 27.9632 11.1089 27.7333V19.0667C11.1089 18.8368 11.0189 18.6164 10.8586 18.4538C10.6984 18.2913 10.481 18.2 10.2544 18.2H9.39984C9.39984 13.8328 11.1104 9.64441 14.1553 6.55631C17.2001 3.46821 21.3298 1.73333 25.6359 1.73333C29.942 1.73333 34.0717 3.46821 37.1166 6.55631C40.1614 9.64441 41.872 13.8328 41.872 18.2H41.0175C40.7908 18.2 40.5735 18.2913 40.4132 18.4538C40.253 18.6164 40.1629 18.8368 40.1629 19.0667V27.7333C40.1629 27.9632 40.253 28.1836 40.4132 28.3462C40.5735 28.5087 40.7908 28.6 41.0175 28.6H41.872V31.2C41.872 31.4299 41.782 31.6503 41.6217 31.8128C41.4615 31.9754 41.2441 32.0667 41.0175 32.0667H34.8819C34.7046 31.5616 34.3781 31.1243 33.9469 30.8141C33.5157 30.504 33.0008 30.3361 32.4722 30.3333H30.7631C30.0832 30.3333 29.4311 30.6073 28.9504 31.0949C28.4696 31.5825 28.1995 32.2438 28.1995 32.9333C28.1995 33.6229 28.4696 34.2842 28.9504 34.7718C29.4311 35.2594 30.0832 35.5333 30.7631 35.5333H32.4722C33.0008 35.5306 33.5157 35.3627 33.9469 35.0525C34.3781 34.7424 34.7046 34.305 34.8819 33.8H41.0175C41.6968 33.7979 42.3476 33.5234 42.828 33.0362C43.3083 32.5491 43.579 31.8889 43.5811 31.2V28.6H45.2901C46.6499 28.6 47.9541 28.0521 48.9156 27.077C49.8771 26.1018 50.4173 24.7791 50.4173 23.4C50.4173 22.0209 49.8771 20.6982 48.9156 19.723C47.9541 18.7479 46.6499 18.2 45.2901 18.2ZM5.98171 26.8667C5.07517 26.8667 4.20576 26.5014 3.56474 25.8513C2.92371 25.2012 2.56359 24.3194 2.56359 23.4C2.56359 22.4806 2.92371 21.5988 3.56474 20.9487C4.20576 20.2986 5.07517 19.9333 5.98171 19.9333V26.8667ZM9.39984 26.8667H7.69077V19.9333H9.39984V26.8667ZM32.4722 33.8H30.7631C30.5365 33.8 30.3191 33.7087 30.1589 33.5462C29.9986 33.3836 29.9086 33.1632 29.9086 32.9333C29.9086 32.7035 29.9986 32.483 30.1589 32.3205C30.3191 32.158 30.5365 32.0667 30.7631 32.0667H32.4722C32.6988 32.0667 32.9162 32.158 33.0764 32.3205C33.2367 32.483 33.3267 32.7035 33.3267 32.9333C33.3267 33.1632 33.2367 33.3836 33.0764 33.5462C32.9162 33.7087 32.6988 33.8 32.4722 33.8ZM43.5811 26.8667H41.872V19.9333H43.5811V26.8667ZM45.2901 26.8667V19.9333C46.1967 19.9333 47.0661 20.2986 47.7071 20.9487C48.3481 21.5988 48.7082 22.4806 48.7082 23.4C48.7082 24.3194 48.3481 25.2012 47.7071 25.8513C47.0661 26.5014 46.1967 26.8667 45.2901 26.8667Z" fill="#FF6600"/>
</svg>
